<svg xmlns="http://www.w3.org/2000/svg"
     width="1200" height="892" viewBox="0 0 1200 892"
     role="img" aria-labelledby="title desc">
  <title id="title">SheetToConfig 예시 워크북</title>
  <desc id="desc">예시 구조: TypeDefinition.xlsx에 CODE, Guide, Examples, 아이템, 보상 다섯 시트가 함께 들어 있습니다. 아이템과 보상은 복사 가능한 학습용 예시이며, GameConfig.xlsx로 복사한 뒤 업무용 CODE 시트가 출력을 선언합니다. 필드명은 영문 camelCase로 고정하고, 타입은 한국어 별칭(정수, 문자열, 품질, 아이콘경로, 아이템ID, 아이템목록 등)을 사용하며, itemId는 고정 int를 유지하고, 시트명과 필드 설명은 한국어를 사용합니다.</desc>

  <defs>
    <pattern id="cellgrid" width="40" height="40" patternUnits="userSpaceOnUse">
      <path d="M40 0H0V40" fill="none" stroke="#E8F5F0" stroke-opacity="0.035" stroke-width="1"/>
    </pattern>
  </defs>

  <rect width="1200" height="892" rx="24" fill="#0A0F0D"/>
  <rect width="1200" height="892" rx="24" fill="url(#cellgrid)"/>

  <!-- ============ CODE worksheet panel ============ -->
  <g id="code-sheet">
    <rect x="48" y="32" width="560" height="284" rx="12" fill="#111815" stroke="#1F2A26"/>
    <g transform="translate(64 48)">
      <rect width="15" height="15" rx="3" fill="none" stroke="#00D4AA" stroke-width="1.5"/>
      <path d="M5 0V15 M0 5H15" stroke="#00D4AA" stroke-width="1"/>
    </g>
    <text x="88" y="62" font-family="-apple-system, BlinkMacSystemFont, 'Segoe UI', 'PingFang SC', 'Microsoft YaHei', 'Malgun Gothic', 'Apple SD Gothic Neo', sans-serif"
          font-size="16" font-weight="600" fill="#E8F5F0">복사해 실행: GameConfig.xlsx — CODE</text>

    <g stroke="#1F2A26" stroke-width="1">
      <path d="M64 90H534 M64 128H534 M64 166H534 M64 204H534 M64 242H534 M64 280H534"/>
      <path d="M64 90V280 M184 90V280 M414 90V280 M534 90V280"/>
    </g>

    <g font-family="ui-monospace, SFMono-Regular, Menlo, Consolas, monospace">
      <text x="76" y="116" font-size="14" font-weight="600" fill="#8A9A93">Sheet</text>
      <text x="196" y="116" font-size="14" font-weight="600" fill="#8A9A93">File</text>
      <text x="426" y="116" font-size="14" font-weight="600" fill="#8A9A93">Platform</text>
      <g font-size="15" fill="#E8F5F0">
        <text x="76" y="154" font-family="-apple-system, BlinkMacSystemFont, 'Segoe UI', 'PingFang SC', 'Microsoft YaHei', 'Malgun Gothic', 'Apple SD Gothic Neo', sans-serif">아이템</text>
        <text x="196" y="154">ItemConfig.json</text>
        <text x="76" y="192" font-family="-apple-system, BlinkMacSystemFont, 'Segoe UI', 'PingFang SC', 'Microsoft YaHei', 'Malgun Gothic', 'Apple SD Gothic Neo', sans-serif">보상</text>
        <text x="196" y="192">RewardConfig.json</text>
        <text x="76" y="230" font-family="-apple-system, BlinkMacSystemFont, 'Segoe UI', 'PingFang SC', 'Microsoft YaHei', 'Malgun Gothic', 'Apple SD Gothic Neo', sans-serif">드롭</text>
        <text x="196" y="230">DropConfig.lua</text>
        <text x="76" y="268" font-family="-apple-system, BlinkMacSystemFont, 'Segoe UI', 'PingFang SC', 'Microsoft YaHei', 'Malgun Gothic', 'Apple SD Gothic Neo', sans-serif">퀘스트</text>
        <text x="196" y="268">QuestConfig.pb</text>
      </g>
    </g>

    <g font-family="ui-monospace, SFMono-Regular, Menlo, Consolas, monospace" font-size="13"
       font-weight="700" text-anchor="middle">
      <rect x="426" y="136" width="40" height="22" rx="6" fill="#00D4AA"/>
      <text x="446" y="152" fill="#0A0F0D">cs</text>
      <rect x="426" y="174" width="40" height="22" rx="6" fill="#00D4AA"/>
      <text x="446" y="190" fill="#0A0F0D">cs</text>
      <rect x="426" y="212" width="40" height="22" rx="6" fill="none" stroke="#8A9A93" stroke-width="1.5"/>
      <text x="446" y="228" fill="#8A9A93">s</text>
      <rect x="426" y="250" width="40" height="22" rx="6" fill="none" stroke="#8A9A93" stroke-width="1.5"/>
      <text x="446" y="266" fill="#8A9A93">s</text>
    </g>
  </g>

  <!-- ============ TypeDefinition panel ============ -->
  <g id="type-definition">
    <rect x="632" y="32" width="520" height="284" rx="12" fill="#111815" stroke="#1F2A26"/>
    <g transform="translate(648 48)">
      <rect width="15" height="15" rx="3" fill="none" stroke="#00D4AA" stroke-width="1.5"/>
      <path d="M5 0V15 M0 5H15" stroke="#00D4AA" stroke-width="1"/>
    </g>
    <text x="672" y="62" font-family="-apple-system, BlinkMacSystemFont, 'Segoe UI', 'PingFang SC', 'Microsoft YaHei', 'Malgun Gothic', 'Apple SD Gothic Neo', sans-serif"
          font-size="16" font-weight="600" fill="#E8F5F0">TypeDefinition.xlsx</text>

    <!-- reference types -->
    <rect x="648" y="252" width="500" height="48" fill="#00D4AA" fill-opacity="0.05"/>

    <g stroke="#1F2A26" stroke-width="1">
      <path d="M648 84H1148 M648 108H1148 M648 132H1148 M648 156H1148 M648 180H1148 M648 204H1148 M648 228H1148 M648 252H1148 M648 276H1148 M648 300H1148"/>
      <path d="M648 84V300 M748 84V300 M1010 84V300 M1148 84V300"/>
    </g>

    <g font-family="-apple-system, BlinkMacSystemFont, 'Segoe UI', 'PingFang SC', 'Microsoft YaHei', 'Malgun Gothic', 'Apple SD Gothic Neo', sans-serif"
       font-size="13" font-weight="600" fill="#8A9A93">
      <text x="658" y="100">타입명</text>
      <text x="758" y="100">변환 함수</text>
      <text x="1020" y="100">설명 / 예시</text>
    </g>

    <g font-size="13">
      <text x="658" y="125" font-family="-apple-system, BlinkMacSystemFont, 'Segoe UI', 'PingFang SC', 'Microsoft YaHei', 'Malgun Gothic', 'Apple SD Gothic Neo', sans-serif" fill="#E8F5F0">정수</text>
      <text x="758" y="125" font-family="ui-monospace, SFMono-Regular, Menlo, Consolas, monospace" fill="#8A9A93">int</text>
      <text x="658" y="149" font-family="-apple-system, BlinkMacSystemFont, 'Segoe UI', 'PingFang SC', 'Microsoft YaHei', 'Malgun Gothic', 'Apple SD Gothic Neo', sans-serif" fill="#E8F5F0">문자열</text>
      <text x="758" y="149" font-family="ui-monospace, SFMono-Regular, Menlo, Consolas, monospace" fill="#8A9A93">string</text>
      <text x="658" y="173" font-family="-apple-system, BlinkMacSystemFont, 'Segoe UI', 'PingFang SC', 'Microsoft YaHei', 'Malgun Gothic', 'Apple SD Gothic Neo', sans-serif" fill="#00D4AA">품질</text>
      <text x="758" y="173" font-family="ui-monospace, SFMono-Regular, Menlo, Consolas, monospace" fill="#00D4AA">qualityEnum</text>
      <text x="658" y="197" font-family="-apple-system, BlinkMacSystemFont, 'Segoe UI', 'PingFang SC', 'Microsoft YaHei', 'Malgun Gothic', 'Apple SD Gothic Neo', sans-serif" fill="#00D4AA">아이콘경로</text>
      <text x="758" y="197" font-family="ui-monospace, SFMono-Regular, Menlo, Consolas, monospace" fill="#00D4AA">iconPath</text>
      <text x="658" y="221" font-family="-apple-system, BlinkMacSystemFont, 'Segoe UI', 'PingFang SC', 'Microsoft YaHei', 'Malgun Gothic', 'Apple SD Gothic Neo', sans-serif" fill="#E8F5F0">정수목록</text>
      <text x="758" y="221" font-family="ui-monospace, SFMono-Regular, Menlo, Consolas, monospace" fill="#8A9A93">intList</text>
      <text x="658" y="245" font-family="-apple-system, BlinkMacSystemFont, 'Segoe UI', 'PingFang SC', 'Microsoft YaHei', 'Malgun Gothic', 'Apple SD Gothic Neo', sans-serif" fill="#E8F5F0">실수</text>
      <text x="758" y="245" font-family="ui-monospace, SFMono-Regular, Menlo, Consolas, monospace" fill="#8A9A93">float</text>
      <text x="658" y="269" font-family="-apple-system, BlinkMacSystemFont, 'Segoe UI', 'PingFang SC', 'Microsoft YaHei', 'Malgun Gothic', 'Apple SD Gothic Neo', sans-serif" fill="#00D4AA">아이템ID</text>
      <text x="752" y="269" font-family="ui-monospace, SFMono-Regular, Menlo, Consolas, monospace" fill="#00D4AA">find_id(GameConfig,아이템,itemId)</text>
      <text x="658" y="293" font-family="-apple-system, BlinkMacSystemFont, 'Segoe UI', 'PingFang SC', 'Microsoft YaHei', 'Malgun Gothic', 'Apple SD Gothic Neo', sans-serif" fill="#00D4AA">아이템목록</text>
      <text x="758" y="293" font-family="ui-monospace, SFMono-Regular, Menlo, Consolas, monospace" fill="#00D4AA">split_list(find_id(&#8230;))</text>
    </g>
    <g font-family="-apple-system, BlinkMacSystemFont, 'Segoe UI', 'PingFang SC', 'Microsoft YaHei', 'Malgun Gothic', 'Apple SD Gothic Neo', sans-serif"
       font-size="13" fill="#8A9A93">
      <text x="1020" y="125">정수 별칭</text>
      <text x="1020" y="149">문자열 별칭</text>
      <text x="1020" y="173">문자열 열거</text>
      <text x="1016" y="197">아이콘 경로 자동 결합</text>
      <text x="1020" y="221">1차원 정수 목록</text>
      <text x="1020" y="245">실수 별칭</text>
      <text x="1014" y="269">시트 간 참조(단일 값)</text>
      <text x="1020" y="293">참조 목록, # 구분</text>
    </g>
  </g>

  <!-- ============ legend strip ============ -->
  <g id="legend" text-anchor="middle"
     font-family="-apple-system, BlinkMacSystemFont, 'Segoe UI', 'PingFang SC', 'Microsoft YaHei', 'Malgun Gothic', 'Apple SD Gothic Neo', sans-serif">
    <text x="600" y="332" font-size="14">
      <tspan font-family="ui-monospace, SFMono-Regular, Menlo, Consolas, monospace" fill="#00D4AA">Sheet</tspan><tspan fill="#8A9A93"> — 데이터 시트명 &#183; </tspan><tspan font-family="ui-monospace, SFMono-Regular, Menlo, Consolas, monospace" fill="#00D4AA">File</tspan><tspan fill="#8A9A93"> — 출력 파일명, 확장자가 형식 결정 &#183; </tspan><tspan font-family="ui-monospace, SFMono-Regular, Menlo, Consolas, monospace" fill="#00D4AA">Platform</tspan><tspan fill="#8A9A93"> — c 클라이언트 / s 서버 / cs 양쪽; 헤더 행 생략 가능</tspan>
    </text>
    <text x="600" y="358" font-size="13" fill="#55665E">TypeDefinition.xlsx에 5개 시트가 있으며, 아이템 / 보상을 업무 통합 문서로 복사하면 실행됩니다. itemId는 순수 ID 출력을 위해 고정 int입니다.</text>
  </g>

  <!-- ============ teaching worksheets panel ============ -->
  <g id="data-sheet">
    <rect x="48" y="376" width="1104" height="492" rx="12" fill="#111815" stroke="#1F2A26"/>
    <g transform="translate(64 392)">
      <rect width="15" height="15" rx="3" fill="none" stroke="#00D4AA" stroke-width="1.5"/>
      <path d="M5 0V15 M0 5H15" stroke="#00D4AA" stroke-width="1"/>
    </g>
    <text x="88" y="406" font-family="-apple-system, BlinkMacSystemFont, 'Segoe UI', 'PingFang SC', 'Microsoft YaHei', 'Malgun Gothic', 'Apple SD Gothic Neo', sans-serif"
          font-size="16" font-weight="600" fill="#E8F5F0">TypeDefinition.xlsx — 아이템 / 보상 학습 시트</text>

    <!-- ===== 아이템 ===== -->
    <rect x="168" y="422" width="58" height="24" rx="6" fill="#00D4AA"/>
    <text x="197" y="438" text-anchor="middle" font-family="-apple-system, BlinkMacSystemFont, 'Segoe UI', 'PingFang SC', 'Microsoft YaHei', 'Malgun Gothic', 'Apple SD Gothic Neo', sans-serif"
          font-size="13" font-weight="700" fill="#0A0F0D">아이템</text>

    <rect x="168" y="456" width="640" height="112" fill="#0D1310"/>
    <rect x="678" y="456" width="130" height="168" fill="#00D4AA" fill-opacity="0.05"/>

    <g stroke="#1F2A26" stroke-width="1">
      <path d="M168 456H808 M168 484H808 M168 512H808 M168 540H808 M168 568H808 M168 596H808 M168 624H808"/>
      <path d="M168 456V624 M318 456V624 M538 456V624 M678 456V624 M808 456V624"/>
    </g>

    <g font-family="-apple-system, BlinkMacSystemFont, 'Segoe UI', 'PingFang SC', 'Microsoft YaHei', 'Malgun Gothic', 'Apple SD Gothic Neo', sans-serif"
       font-size="13" fill="#55665E">
      <text x="99" y="475">&#9312; 필드명</text>
      <text x="78" y="503">&#9313; 타입+제약</text>
      <text x="92" y="533">&#9314; 출력 대상</text>
      <text x="112" y="559">&#9315; 설명</text>
      <text x="92" y="601">데이터 행 &#8594;</text>
    </g>

    <g font-family="ui-monospace, SFMono-Regular, Menlo, Consolas, monospace" font-size="15"
       font-weight="600" fill="#E8F5F0">
      <text x="180" y="475">itemId</text>
      <text x="330" y="475">name</text>
      <text x="550" y="475">quality</text>
      <text x="690" y="475">icon</text>
    </g>
    <g font-size="13" fill="#00D4AA">
      <text x="176" y="503" font-family="ui-monospace, SFMono-Regular, Menlo, Consolas, monospace">int+unique()</text>
      <text x="326" y="503" font-family="ui-monospace, SFMono-Regular, Menlo, Consolas, monospace">문자열+required()+unique()</text>
      <text x="546" y="503" font-family="-apple-system, BlinkMacSystemFont, 'Segoe UI', 'PingFang SC', 'Microsoft YaHei', 'Malgun Gothic', 'Apple SD Gothic Neo', sans-serif">품질</text>
      <text x="686" y="503" font-family="-apple-system, BlinkMacSystemFont, 'Segoe UI', 'PingFang SC', 'Microsoft YaHei', 'Malgun Gothic', 'Apple SD Gothic Neo', sans-serif">아이콘경로</text>
    </g>
    <g font-family="ui-monospace, SFMono-Regular, Menlo, Consolas, monospace" font-size="13"
       font-weight="700" text-anchor="middle">
      <rect x="176" y="517" width="40" height="22" rx="6" fill="#00D4AA"/>
      <text x="196" y="533" fill="#0A0F0D">CS</text>
      <rect x="326" y="517" width="40" height="22" rx="6" fill="#00D4AA"/>
      <text x="346" y="533" fill="#0A0F0D">CS</text>
      <rect x="546" y="517" width="40" height="22" rx="6" fill="#00D4AA"/>
      <text x="566" y="533" fill="#0A0F0D">CS</text>
      <rect x="686" y="517" width="40" height="22" rx="6" fill="none" stroke="#00D4AA" stroke-width="1.5"/>
      <text x="706" y="533" fill="#00D4AA">C</text>
    </g>
    <g font-family="-apple-system, BlinkMacSystemFont, 'Segoe UI', 'PingFang SC', 'Microsoft YaHei', 'Malgun Gothic', 'Apple SD Gothic Neo', sans-serif"
       font-size="14" fill="#8A9A93">
      <text x="180" y="559">고유 아이템 ID</text>
      <text x="330" y="559">필수이자 고유한 표시 이름</text>
      <text x="550" y="559">세 가지 열거</text>
      <text x="690" y="551" font-size="12">클라이언트 전용<tspan x="690" dy="14">아이콘 경로</tspan></text>
    </g>
    <g font-family="ui-monospace, SFMono-Regular, Menlo, Consolas, monospace" font-size="14" fill="#E8F5F0">
      <text x="178" y="587">1001</text>
      <text x="328" y="587">Bronze Sword</text>
      <text x="548" y="587">green</text>
      <text x="688" y="587">sword</text>
      <text x="178" y="615">1002</text>
      <text x="328" y="615">Iron Shield</text>
      <text x="548" y="615">blue</text>
      <text x="688" y="615">shield</text>
    </g>

    <!-- ===== 보상 ===== -->
    <rect x="168" y="642" width="58" height="24" rx="6" fill="#00D4AA"/>
    <text x="197" y="658" text-anchor="middle" font-family="-apple-system, BlinkMacSystemFont, 'Segoe UI', 'PingFang SC', 'Microsoft YaHei', 'Malgun Gothic', 'Apple SD Gothic Neo', sans-serif"
          font-size="13" font-weight="700" fill="#0A0F0D">보상</text>

    <rect x="168" y="676" width="910" height="112" fill="#0D1310"/>
    <rect x="508" y="676" width="420" height="168" fill="#00D4AA" fill-opacity="0.05"/>
    <rect x="928" y="676" width="150" height="168" fill="#8A9A93" fill-opacity="0.06"/>

    <g stroke="#1F2A26" stroke-width="1">
      <path d="M168 676H1078 M168 704H1078 M168 732H1078 M168 760H1078 M168 788H1078 M168 816H1078 M168 844H1078"/>
      <path d="M168 676V844 M308 676V844 M508 676V844 M708 676V844 M928 676V844 M1078 676V844"/>
    </g>

    <g font-family="-apple-system, BlinkMacSystemFont, 'Segoe UI', 'PingFang SC', 'Microsoft YaHei', 'Malgun Gothic', 'Apple SD Gothic Neo', sans-serif"
       font-size="13" fill="#55665E">
      <text x="99" y="695">&#9312; 필드명</text>
      <text x="78" y="723">&#9313; 타입+제약</text>
      <text x="92" y="753">&#9314; 출력 대상</text>
      <text x="112" y="779">&#9315; 설명</text>
      <text x="92" y="821">데이터 행 &#8594;</text>
    </g>

    <g font-family="ui-monospace, SFMono-Regular, Menlo, Consolas, monospace" font-size="15"
       font-weight="600" fill="#E8F5F0">
      <text x="180" y="695">rewardId</text>
      <text x="320" y="695">primaryItemId</text>
      <text x="520" y="695">itemIds</text>
      <text x="720" y="695">weights</text>
      <text x="940" y="695">rate</text>
    </g>
    <g font-size="13" fill="#00D4AA">
      <text x="176" y="723" font-family="ui-monospace, SFMono-Regular, Menlo, Consolas, monospace">정수+unique()</text>
      <text x="316" y="723" font-family="ui-monospace, SFMono-Regular, Menlo, Consolas, monospace">아이템ID+required()</text>
      <text x="516" y="723" font-family="ui-monospace, SFMono-Regular, Menlo, Consolas, monospace">아이템목록+len(1,3)</text>
      <text x="716" y="723" font-family="ui-monospace, SFMono-Regular, Menlo, Consolas, monospace">정수목록+equalLen(itemIds)</text>
      <text x="936" y="723" font-family="ui-monospace, SFMono-Regular, Menlo, Consolas, monospace">실수+range(0,1)</text>
    </g>
    <g font-family="ui-monospace, SFMono-Regular, Menlo, Consolas, monospace" font-size="13"
       font-weight="700" text-anchor="middle">
      <rect x="176" y="737" width="40" height="22" rx="6" fill="#00D4AA"/>
      <text x="196" y="753" fill="#0A0F0D">CS</text>
      <rect x="316" y="737" width="40" height="22" rx="6" fill="#00D4AA"/>
      <text x="336" y="753" fill="#0A0F0D">CS</text>
      <rect x="516" y="737" width="40" height="22" rx="6" fill="none" stroke="#00D4AA" stroke-width="1.5"/>
      <text x="536" y="753" fill="#00D4AA">C</text>
      <rect x="716" y="737" width="40" height="22" rx="6" fill="none" stroke="#00D4AA" stroke-width="1.5"/>
      <text x="736" y="753" fill="#00D4AA">C</text>
      <rect x="936" y="737" width="40" height="22" rx="6" fill="none" stroke="#8A9A93" stroke-width="1.5"/>
      <text x="956" y="753" fill="#8A9A93">S</text>
    </g>
    <g font-family="-apple-system, BlinkMacSystemFont, 'Segoe UI', 'PingFang SC', 'Microsoft YaHei', 'Malgun Gothic', 'Apple SD Gothic Neo', sans-serif"
       font-size="14" fill="#8A9A93">
      <text x="180" y="779">고유 보상 ID</text>
      <text x="320" y="779">아이템.itemId 참조</text>
      <text x="520" y="779">아이템 ID 목록</text>
      <text x="720" y="779">itemIds와 같은 길이</text>
      <text x="940" y="771" font-size="12">서버 전용<tspan x="940" dy="14">닫힌 구간 확률</tspan></text>
    </g>
    <g font-family="ui-monospace, SFMono-Regular, Menlo, Consolas, monospace" font-size="14" fill="#E8F5F0">
      <text x="178" y="807">1</text>
      <text x="318" y="807">1001</text>
      <text x="518" y="807">1001#1002</text>
      <text x="718" y="807">70#30</text>
      <text x="938" y="807">0.25</text>
      <text x="178" y="835">2</text>
      <text x="318" y="835">1002</text>
      <text x="518" y="835">1002</text>
      <text x="718" y="835">100</text>
      <text x="938" y="835">1.0</text>
    </g>
  </g>
</svg>
