<svg xmlns="http://www.w3.org/2000/svg"
     width="1200" height="892" viewBox="0 0 1200 892"
     role="img" aria-labelledby="title desc">
  <title id="title">SheetToConfig — libro de ejemplo</title>
  <desc id="desc">Estructura de ejemplo: TypeDefinition.xlsx reúne cinco hojas — CODE, Guide, Examples, Objetos y Recompensas; Objetos y Recompensas son ejemplos didácticos copiables que, una vez copiados a GameConfig.xlsx, se declaran en la hoja CODE de negocio. Los nombres de campo usan camelCase inglés fijo, los tipos usan alias en español (entero, texto, calidad, rutaIcono, idObjeto, listaObjetos, etc.), itemId conserva el int fijo y los nombres de hoja y las descripciones están en español.</desc>

  <defs>
    <pattern id="cellgrid" width="40" height="40" patternUnits="userSpaceOnUse">
      <path d="M40 0H0V40" fill="none" stroke="#E8F5F0" stroke-opacity="0.035" stroke-width="1"/>
    </pattern>
  </defs>

  <rect width="1200" height="892" rx="24" fill="#0A0F0D"/>
  <rect width="1200" height="892" rx="24" fill="url(#cellgrid)"/>

  <!-- ============ CODE worksheet panel ============ -->
  <g id="code-sheet">
    <rect x="48" y="32" width="560" height="284" rx="12" fill="#111815" stroke="#1F2A26"/>
    <g transform="translate(64 48)">
      <rect width="15" height="15" rx="3" fill="none" stroke="#00D4AA" stroke-width="1.5"/>
      <path d="M5 0V15 M0 5H15" stroke="#00D4AA" stroke-width="1"/>
    </g>
    <text x="88" y="62" font-family="-apple-system, BlinkMacSystemFont, 'Segoe UI', 'PingFang SC', 'Microsoft YaHei', sans-serif"
          font-size="16" font-weight="600" fill="#E8F5F0">Copiar y ejecutar: GameConfig.xlsx — CODE</text>

    <g stroke="#1F2A26" stroke-width="1">
      <path d="M64 90H534 M64 128H534 M64 166H534 M64 204H534 M64 242H534 M64 280H534"/>
      <path d="M64 90V280 M184 90V280 M414 90V280 M534 90V280"/>
    </g>

    <g font-family="ui-monospace, SFMono-Regular, Menlo, Consolas, monospace">
      <text x="76" y="116" font-size="14" font-weight="600" fill="#8A9A93">Sheet</text>
      <text x="196" y="116" font-size="14" font-weight="600" fill="#8A9A93">File</text>
      <text x="426" y="116" font-size="14" font-weight="600" fill="#8A9A93">Platform</text>
      <g font-size="15" fill="#E8F5F0">
        <text x="76" y="154" font-family="-apple-system, BlinkMacSystemFont, 'Segoe UI', 'PingFang SC', 'Microsoft YaHei', sans-serif">Objetos</text>
        <text x="196" y="154">ItemConfig.json</text>
        <text x="76" y="192" font-family="-apple-system, BlinkMacSystemFont, 'Segoe UI', 'PingFang SC', 'Microsoft YaHei', sans-serif">Recompensas</text>
        <text x="196" y="192">RewardConfig.json</text>
        <text x="76" y="230" font-family="-apple-system, BlinkMacSystemFont, 'Segoe UI', 'PingFang SC', 'Microsoft YaHei', sans-serif">Botín</text>
        <text x="196" y="230">DropConfig.lua</text>
        <text x="76" y="268" font-family="-apple-system, BlinkMacSystemFont, 'Segoe UI', 'PingFang SC', 'Microsoft YaHei', sans-serif">Misiones</text>
        <text x="196" y="268">QuestConfig.pb</text>
      </g>
    </g>

    <g font-family="ui-monospace, SFMono-Regular, Menlo, Consolas, monospace" font-size="13"
       font-weight="700" text-anchor="middle">
      <rect x="426" y="136" width="40" height="22" rx="6" fill="#00D4AA"/>
      <text x="446" y="152" fill="#0A0F0D">cs</text>
      <rect x="426" y="174" width="40" height="22" rx="6" fill="#00D4AA"/>
      <text x="446" y="190" fill="#0A0F0D">cs</text>
      <rect x="426" y="212" width="40" height="22" rx="6" fill="none" stroke="#8A9A93" stroke-width="1.5"/>
      <text x="446" y="228" fill="#8A9A93">s</text>
      <rect x="426" y="250" width="40" height="22" rx="6" fill="none" stroke="#8A9A93" stroke-width="1.5"/>
      <text x="446" y="266" fill="#8A9A93">s</text>
    </g>
  </g>

  <!-- ============ TypeDefinition panel ============ -->
  <g id="type-definition">
    <rect x="632" y="32" width="520" height="284" rx="12" fill="#111815" stroke="#1F2A26"/>
    <g transform="translate(648 48)">
      <rect width="15" height="15" rx="3" fill="none" stroke="#00D4AA" stroke-width="1.5"/>
      <path d="M5 0V15 M0 5H15" stroke="#00D4AA" stroke-width="1"/>
    </g>
    <text x="672" y="62" font-family="-apple-system, BlinkMacSystemFont, 'Segoe UI', 'PingFang SC', 'Microsoft YaHei', sans-serif"
          font-size="16" font-weight="600" fill="#E8F5F0">TypeDefinition.xlsx</text>

    <!-- reference types -->
    <rect x="648" y="252" width="500" height="48" fill="#00D4AA" fill-opacity="0.05"/>

    <g stroke="#1F2A26" stroke-width="1">
      <path d="M648 84H1148 M648 108H1148 M648 132H1148 M648 156H1148 M648 180H1148 M648 204H1148 M648 228H1148 M648 252H1148 M648 276H1148 M648 300H1148"/>
      <path d="M648 84V300 M750 84V300 M1000 84V300 M1148 84V300"/>
    </g>

    <g font-family="-apple-system, BlinkMacSystemFont, 'Segoe UI', 'PingFang SC', 'Microsoft YaHei', sans-serif"
       font-size="13" font-weight="600" fill="#8A9A93">
      <text x="658" y="100">Nombre</text>
      <text x="758" y="100">Conversión</text>
      <text x="1008" y="100">Desc. / ejemplo</text>
    </g>

    <g font-size="13">
      <text x="658" y="125" font-family="-apple-system, BlinkMacSystemFont, 'Segoe UI', 'PingFang SC', 'Microsoft YaHei', sans-serif" fill="#E8F5F0">entero</text>
      <text x="758" y="125" font-family="ui-monospace, SFMono-Regular, Menlo, Consolas, monospace" fill="#8A9A93">int</text>
      <text x="658" y="149" font-family="-apple-system, BlinkMacSystemFont, 'Segoe UI', 'PingFang SC', 'Microsoft YaHei', sans-serif" fill="#E8F5F0">texto</text>
      <text x="758" y="149" font-family="ui-monospace, SFMono-Regular, Menlo, Consolas, monospace" fill="#8A9A93">string</text>
      <text x="658" y="173" font-family="-apple-system, BlinkMacSystemFont, 'Segoe UI', 'PingFang SC', 'Microsoft YaHei', sans-serif" fill="#00D4AA">calidad</text>
      <text x="758" y="173" font-family="ui-monospace, SFMono-Regular, Menlo, Consolas, monospace" fill="#00D4AA">qualityEnum</text>
      <text x="658" y="197" font-family="-apple-system, BlinkMacSystemFont, 'Segoe UI', 'PingFang SC', 'Microsoft YaHei', sans-serif" fill="#00D4AA">rutaIcono</text>
      <text x="758" y="197" font-family="ui-monospace, SFMono-Regular, Menlo, Consolas, monospace" fill="#00D4AA">iconPath</text>
      <text x="658" y="221" font-family="-apple-system, BlinkMacSystemFont, 'Segoe UI', 'PingFang SC', 'Microsoft YaHei', sans-serif" fill="#E8F5F0">listaEnteros</text>
      <text x="758" y="221" font-family="ui-monospace, SFMono-Regular, Menlo, Consolas, monospace" fill="#8A9A93">intList</text>
      <text x="658" y="245" font-family="-apple-system, BlinkMacSystemFont, 'Segoe UI', 'PingFang SC', 'Microsoft YaHei', sans-serif" fill="#E8F5F0">numeroDecimal</text>
      <text x="758" y="245" font-family="ui-monospace, SFMono-Regular, Menlo, Consolas, monospace" fill="#8A9A93">float</text>
      <text x="658" y="269" font-family="-apple-system, BlinkMacSystemFont, 'Segoe UI', 'PingFang SC', 'Microsoft YaHei', sans-serif" fill="#00D4AA">idObjeto</text>
      <text x="752" y="269" font-family="ui-monospace, SFMono-Regular, Menlo, Consolas, monospace" fill="#00D4AA">find_id(GameConfig,Objetos,itemId)</text>
      <text x="658" y="293" font-family="-apple-system, BlinkMacSystemFont, 'Segoe UI', 'PingFang SC', 'Microsoft YaHei', sans-serif" fill="#00D4AA">listaObjetos</text>
      <text x="758" y="293" font-family="ui-monospace, SFMono-Regular, Menlo, Consolas, monospace" fill="#00D4AA">split_list(find_id(&#8230;))</text>
    </g>
    <g font-family="-apple-system, BlinkMacSystemFont, 'Segoe UI', 'PingFang SC', 'Microsoft YaHei', sans-serif"
       font-size="13" fill="#8A9A93">
      <text x="1008" y="125">alias de int</text>
      <text x="1008" y="149">alias de string</text>
      <text x="1008" y="173">enumeración de texto</text>
      <text x="1008" y="197">ruta auto-completada</text>
      <text x="1008" y="221">lista de enteros 1-D</text>
      <text x="1008" y="245">alias de float</text>
      <text x="1008" y="269">referencia entre hojas</text>
      <text x="1008" y="293">lista de refs, sep. #</text>
    </g>
  </g>

  <!-- ============ legend strip ============ -->
  <g id="legend" text-anchor="middle"
     font-family="-apple-system, BlinkMacSystemFont, 'Segoe UI', 'PingFang SC', 'Microsoft YaHei', sans-serif">
    <text x="600" y="332" font-size="14">
      <tspan font-family="ui-monospace, SFMono-Regular, Menlo, Consolas, monospace" fill="#00D4AA">Sheet</tspan><tspan fill="#8A9A93"> — hoja de datos &#183; </tspan><tspan font-family="ui-monospace, SFMono-Regular, Menlo, Consolas, monospace" fill="#00D4AA">File</tspan><tspan fill="#8A9A93"> — salida, la extensión define el formato &#183; </tspan><tspan font-family="ui-monospace, SFMono-Regular, Menlo, Consolas, monospace" fill="#00D4AA">Platform</tspan><tspan fill="#8A9A93"> — c cliente / s servidor / cs ambos; encabezado opcional</tspan>
    </text>
    <text x="600" y="358" font-size="13" fill="#55665E">TypeDefinition.xlsx reúne cinco hojas; copie Objetos / Recompensas a un libro de negocio para ejecutarlas; itemId conserva el int fijo para exportar IDs simples</text>
  </g>

  <!-- ============ teaching worksheets panel ============ -->
  <g id="data-sheet">
    <rect x="48" y="376" width="1104" height="492" rx="12" fill="#111815" stroke="#1F2A26"/>
    <g transform="translate(64 392)">
      <rect width="15" height="15" rx="3" fill="none" stroke="#00D4AA" stroke-width="1.5"/>
      <path d="M5 0V15 M0 5H15" stroke="#00D4AA" stroke-width="1"/>
    </g>
    <text x="88" y="406" font-family="-apple-system, BlinkMacSystemFont, 'Segoe UI', 'PingFang SC', 'Microsoft YaHei', sans-serif"
          font-size="16" font-weight="600" fill="#E8F5F0">TypeDefinition.xlsx — hojas didácticas Objetos / Recompensas</text>

    <!-- ===== Objetos ===== -->
    <rect x="168" y="422" width="76" height="24" rx="6" fill="#00D4AA"/>
    <text x="206" y="438" text-anchor="middle" font-family="-apple-system, BlinkMacSystemFont, 'Segoe UI', 'PingFang SC', 'Microsoft YaHei', sans-serif"
          font-size="13" font-weight="700" fill="#0A0F0D">Objetos</text>

    <rect x="168" y="456" width="640" height="112" fill="#0D1310"/>
    <rect x="668" y="456" width="140" height="168" fill="#00D4AA" fill-opacity="0.05"/>

    <g stroke="#1F2A26" stroke-width="1">
      <path d="M168 456H808 M168 484H808 M168 512H808 M168 540H808 M168 568H808 M168 596H808 M168 624H808"/>
      <path d="M168 456V624 M308 456V624 M518 456V624 M668 456V624 M808 456V624"/>
    </g>

    <g font-family="-apple-system, BlinkMacSystemFont, 'Segoe UI', 'PingFang SC', 'Microsoft YaHei', sans-serif"
       font-size="13" fill="#55665E">
      <text x="99" y="475">&#9312; Nombre</text>
      <text x="70" y="503">&#9313; Tipo+restr.</text>
      <text x="95" y="533">&#9314; Destino</text>
      <text x="105" y="559">&#9315; Desc.</text>
      <text x="99" y="601">Datos &#8594;</text>
    </g>

    <g font-family="ui-monospace, SFMono-Regular, Menlo, Consolas, monospace" font-size="15"
       font-weight="600" fill="#E8F5F0">
      <text x="180" y="475">itemId</text>
      <text x="320" y="475">name</text>
      <text x="530" y="475">quality</text>
      <text x="680" y="475">icon</text>
    </g>
    <g font-size="13" fill="#00D4AA">
      <text x="176" y="503" font-family="ui-monospace, SFMono-Regular, Menlo, Consolas, monospace">int+unique()</text>
      <text x="316" y="503" font-family="ui-monospace, SFMono-Regular, Menlo, Consolas, monospace">texto+required()+unique()</text>
      <text x="526" y="503" font-family="-apple-system, BlinkMacSystemFont, 'Segoe UI', 'PingFang SC', 'Microsoft YaHei', sans-serif">calidad</text>
      <text x="676" y="503" font-family="-apple-system, BlinkMacSystemFont, 'Segoe UI', 'PingFang SC', 'Microsoft YaHei', sans-serif">rutaIcono</text>
    </g>
    <g font-family="ui-monospace, SFMono-Regular, Menlo, Consolas, monospace" font-size="13"
       font-weight="700" text-anchor="middle">
      <rect x="176" y="517" width="40" height="22" rx="6" fill="#00D4AA"/>
      <text x="196" y="533" fill="#0A0F0D">CS</text>
      <rect x="316" y="517" width="40" height="22" rx="6" fill="#00D4AA"/>
      <text x="336" y="533" fill="#0A0F0D">CS</text>
      <rect x="526" y="517" width="40" height="22" rx="6" fill="#00D4AA"/>
      <text x="546" y="533" fill="#0A0F0D">CS</text>
      <rect x="676" y="517" width="40" height="22" rx="6" fill="none" stroke="#00D4AA" stroke-width="1.5"/>
      <text x="696" y="533" fill="#00D4AA">C</text>
    </g>
    <g font-family="-apple-system, BlinkMacSystemFont, 'Segoe UI', 'PingFang SC', 'Microsoft YaHei', sans-serif"
       font-size="14" fill="#8A9A93">
      <text x="180" y="559">ID de objeto único</text>
      <text x="320" y="559">Nombre visible obligatorio</text>
      <text x="530" y="559">Enumeración de tres</text>
      <text x="680" y="559">Icono solo cliente</text>
    </g>
    <g font-family="ui-monospace, SFMono-Regular, Menlo, Consolas, monospace" font-size="14" fill="#E8F5F0">
      <text x="178" y="587">1001</text>
      <text x="318" y="587">Bronze Sword</text>
      <text x="528" y="587">green</text>
      <text x="678" y="587">sword</text>
      <text x="178" y="615">1002</text>
      <text x="318" y="615">Iron Shield</text>
      <text x="528" y="615">blue</text>
      <text x="678" y="615">shield</text>
    </g>

    <!-- ===== Recompensas ===== -->
    <rect x="168" y="642" width="104" height="24" rx="6" fill="#00D4AA"/>
    <text x="220" y="658" text-anchor="middle" font-family="-apple-system, BlinkMacSystemFont, 'Segoe UI', 'PingFang SC', 'Microsoft YaHei', sans-serif"
          font-size="13" font-weight="700" fill="#0A0F0D">Recompensas</text>

    <rect x="168" y="676" width="969" height="112" fill="#0D1310"/>
    <rect x="508" y="676" width="429" height="168" fill="#00D4AA" fill-opacity="0.05"/>
    <rect x="937" y="676" width="200" height="168" fill="#8A9A93" fill-opacity="0.06"/>

    <g stroke="#1F2A26" stroke-width="1">
      <path d="M168 676H1137 M168 704H1137 M168 732H1137 M168 760H1137 M168 788H1137 M168 816H1137 M168 844H1137"/>
      <path d="M168 676V844 M338 676V844 M508 676V844 M693 676V844 M937 676V844 M1137 676V844"/>
    </g>

    <g font-family="-apple-system, BlinkMacSystemFont, 'Segoe UI', 'PingFang SC', 'Microsoft YaHei', sans-serif"
       font-size="13" fill="#55665E">
      <text x="99" y="695">&#9312; Nombre</text>
      <text x="70" y="723">&#9313; Tipo+restr.</text>
      <text x="95" y="753">&#9314; Destino</text>
      <text x="105" y="779">&#9315; Desc.</text>
      <text x="99" y="821">Datos &#8594;</text>
    </g>

    <g font-family="ui-monospace, SFMono-Regular, Menlo, Consolas, monospace" font-size="15"
       font-weight="600" fill="#E8F5F0">
      <text x="180" y="695">rewardId</text>
      <text x="350" y="695">primaryItemId</text>
      <text x="520" y="695">itemIds</text>
      <text x="705" y="695">weights</text>
      <text x="949" y="695">rate</text>
    </g>
    <g font-size="13" fill="#00D4AA">
      <text x="176" y="723" font-family="ui-monospace, SFMono-Regular, Menlo, Consolas, monospace">entero+unique()</text>
      <text x="346" y="723" font-family="ui-monospace, SFMono-Regular, Menlo, Consolas, monospace">idObjeto+required()</text>
      <text x="516" y="723" font-family="ui-monospace, SFMono-Regular, Menlo, Consolas, monospace">listaObjetos+len(1,3)</text>
      <text x="701" y="723" font-family="ui-monospace, SFMono-Regular, Menlo, Consolas, monospace">listaEnteros+equalLen(itemIds)</text>
      <text x="945" y="723" font-family="ui-monospace, SFMono-Regular, Menlo, Consolas, monospace">numeroDecimal+range(0,1)</text>
    </g>
    <g font-family="ui-monospace, SFMono-Regular, Menlo, Consolas, monospace" font-size="13"
       font-weight="700" text-anchor="middle">
      <rect x="176" y="737" width="40" height="22" rx="6" fill="#00D4AA"/>
      <text x="196" y="753" fill="#0A0F0D">CS</text>
      <rect x="346" y="737" width="40" height="22" rx="6" fill="#00D4AA"/>
      <text x="366" y="753" fill="#0A0F0D">CS</text>
      <rect x="516" y="737" width="40" height="22" rx="6" fill="none" stroke="#00D4AA" stroke-width="1.5"/>
      <text x="536" y="753" fill="#00D4AA">C</text>
      <rect x="701" y="737" width="40" height="22" rx="6" fill="none" stroke="#00D4AA" stroke-width="1.5"/>
      <text x="721" y="753" fill="#00D4AA">C</text>
      <rect x="945" y="737" width="40" height="22" rx="6" fill="none" stroke="#8A9A93" stroke-width="1.5"/>
      <text x="965" y="753" fill="#8A9A93">S</text>
    </g>
    <g font-family="-apple-system, BlinkMacSystemFont, 'Segoe UI', 'PingFang SC', 'Microsoft YaHei', sans-serif"
       font-size="14" fill="#8A9A93">
      <text x="180" y="779">ID de recompensa único</text>
      <text x="350" y="779">Ref. a Objetos.itemId</text>
      <text x="520" y="779">Lista de IDs</text>
      <text x="705" y="779">Igual longitud que itemIds</text>
      <text x="949" y="779">Rango cerrado solo servidor</text>
    </g>
    <g font-family="ui-monospace, SFMono-Regular, Menlo, Consolas, monospace" font-size="14" fill="#E8F5F0">
      <text x="178" y="807">1</text>
      <text x="348" y="807">1001</text>
      <text x="518" y="807">1001#1002</text>
      <text x="703" y="807">70#30</text>
      <text x="947" y="807">0.25</text>
      <text x="178" y="835">2</text>
      <text x="348" y="835">1002</text>
      <text x="518" y="835">1002</text>
      <text x="703" y="835">100</text>
      <text x="947" y="835">1.0</text>
    </g>
  </g>
</svg>
